<svg width="233" height="185" viewBox="0 0 233 185" fill="none" xmlns="http://www.w3.org/2000/svg">
<path d="M139.8 34.6875V115.625H23.3V34.6875H139.8ZM23.3 11.5625C10.4486 11.5625 0 21.9326 0 34.6875V115.625C0 128.38 10.4486 138.75 23.3 138.75H66.0045L62.1091 150.312H34.95C28.5061 150.312 23.3 155.479 23.3 161.875C23.3 168.271 28.5061 173.438 34.95 173.438H128.15C134.594 173.438 139.8 168.271 139.8 161.875C139.8 155.479 134.594 150.312 128.15 150.312H100.955L97.0591 138.75H139.8C152.651 138.75 163.1 128.38 163.1 115.625V34.6875C163.1 21.9326 152.651 11.5625 139.8 11.5625H23.3ZM192.225 11.5625C182.577 11.5625 174.75 19.3311 174.75 28.9062V156.094C174.75 165.669 182.577 173.438 192.225 173.438H215.525C225.173 173.438 233 165.669 233 156.094V28.9062C233 19.3311 225.173 11.5625 215.525 11.5625H192.225ZM198.05 34.6875H209.7C212.904 34.6875 215.525 37.2891 215.525 40.4688C215.525 43.6484 212.904 46.25 209.7 46.25H198.05C194.846 46.25 192.225 43.6484 192.225 40.4688C192.225 37.2891 194.846 34.6875 198.05 34.6875ZM192.225 63.5938C192.225 60.4141 194.846 57.8125 198.05 57.8125H209.7C212.904 57.8125 215.525 60.4141 215.525 63.5938C215.525 66.7734 212.904 69.375 209.7 69.375H198.05C194.846 69.375 192.225 66.7734 192.225 63.5938ZM203.875 121.406C206.965 121.406 209.928 122.624 212.113 124.793C214.298 126.961 215.525 129.902 215.525 132.969C215.525 136.035 214.298 138.976 212.113 141.145C209.928 143.313 206.965 144.531 203.875 144.531C200.785 144.531 197.822 143.313 195.637 141.145C193.452 138.976 192.225 136.035 192.225 132.969C192.225 129.902 193.452 126.961 195.637 124.793C197.822 122.624 200.785 121.406 203.875 121.406Z" fill="white"/>
</svg>
