<svg width="205" height="163" viewBox="0 0 205 163" fill="none" xmlns="http://www.w3.org/2000/svg">
<g clip-path="url(#clip0_38_2)">
<path d="M125.819 0.382005C120.373 -1.17796 114.704 1.9738 113.134 7.38591L72.1342 150.011C70.5647 155.423 73.7357 161.058 79.1811 162.618C84.6264 164.178 90.2959 161.026 91.8654 155.614L132.865 12.989C134.435 7.57693 131.264 1.94197 125.819 0.382005ZM151.636 38.617C147.632 42.5965 147.632 49.0592 151.636 53.0386L180.24 81.5L151.604 109.961C147.6 113.941 147.6 120.403 151.604 124.383C155.608 128.362 162.11 128.362 166.114 124.383L201.989 88.7267C205.993 84.7472 205.993 78.2845 201.989 74.305L166.114 38.6488C162.11 34.6693 155.608 34.6693 151.604 38.6488L151.636 38.617ZM53.3959 38.617C49.392 34.6375 42.8896 34.6375 38.8857 38.617L3.01074 74.2732C-0.993164 78.2527 -0.993164 84.7154 3.01074 88.6949L38.8857 124.351C42.8896 128.331 49.392 128.331 53.3959 124.351C57.3998 120.372 57.3998 113.909 53.3959 109.929L24.76 81.5L53.3959 53.0386C57.3998 49.0592 57.3998 42.5965 53.3959 38.617Z" fill="white"/>
</g>
<defs>
<clipPath id="clip0_38_2">
<rect width="205" height="163" fill="white"/>
</clipPath>
</defs>
</svg>
